<?xml version="1.0" encoding="UTF-8"?>
<svg width="772px" height="250px" viewBox="0 0 772 250" version="1.1" xmlns="http://www.w3.org/2000/svg" xmlns:xlink="http://www.w3.org/1999/xlink">
    <!-- Generator: Sketch 43.2 (39069) - http://www.bohemiancoding.com/sketch -->
    <title>banner</title>
    <desc>Created with Sketch.</desc>
    <defs>
        <path d="M0.133704545,44.2486486 C0.133704545,68.6660661 19.9858182,88.4606607 44.4739261,88.4606607 L44.4739261,88.4606607 C62.487,88.4606607 77.9913068,77.7507508 84.9315966,62.3687688 L84.9315966,62.3687688 C82.9986023,56.4786787 81.3257898,46.1159159 87.997767,35.7576577 L87.997767,35.7576577 C87.7122898,34.2945946 87.3545398,32.8576577 86.9284318,31.4504505 L86.9284318,31.4504505 C66.4692273,51.7114114 49.9509943,53.609009 37.5143636,53.2786787 L37.5143636,53.2786787 C37.3993295,53.2750751 36.9810511,53.2075075 36.8699318,52.9573574 L36.8699318,52.9573574 C36.8699318,52.9573574 36.6886477,52.1471471 37.2186477,52.1471471 L37.2186477,52.1471471 C61.0454602,52.1471471 74.6155682,38.1666667 85.7022045,27.9444444 L85.7022045,27.9444444 C85.0975227,26.4246246 84.4103295,24.9468468 83.6466477,23.515015 L83.6466477,23.515015 C71.6951477,20.2363363 67.1022159,10.4747748 65.4718636,5.2981982 L65.4718636,5.2981982 C59.2217784,1.94084084 52.0709943,0.0357357357 44.4739261,0.0357357357 L44.4739261,0.0357357357 C19.9858182,0.0357357357 0.133704545,19.8303303 0.133704545,44.2486486 L0.133704545,44.2486486 Z M56.544375,13.3591592 C56.544375,13.3591592 73.4721534,11.5222222 78.4574659,32.3810811 L78.4574659,32.3810811 C59.9595625,31.109009 56.544375,13.3591592 56.544375,13.3591592 L56.544375,13.3591592 Z M49.771517,22.136036 C49.771517,22.136036 64.77925,21.6363363 68.195642,40.3513514 L68.195642,40.3513514 C51.9490341,38.0072072 49.771517,22.136036 49.771517,22.136036 L49.771517,22.136036 Z M41.5279091,29.5738739 C41.5279091,29.5738739 55.033875,28.6948949 58.490017,45.4528529 L58.490017,45.4528529 C43.809017,43.8066066 41.5279091,29.5738739 41.5279091,29.5738739 L41.5279091,29.5738739 Z M78.4574659,32.3810811 C78.4767386,32.3822823 78.4942045,32.3834835 78.5134773,32.384985 L78.5134773,32.384985 L78.4728239,32.4459459 C78.4677045,32.4243243 78.4625852,32.4027027 78.4574659,32.3810811 L78.4574659,32.3810811 Z M34.3409886,35.4846847 C34.3409886,35.4846847 46.2081705,34.7108108 49.245733,49.436036 L49.245733,49.436036 C36.3456534,47.9903904 34.3409886,35.4846847 34.3409886,35.4846847 L34.3409886,35.4846847 Z M24.8329091,36.9285285 C24.8329091,36.9285285 36.2330284,36.1867868 39.1501364,50.3309309 L39.1501364,50.3309309 C26.7595795,48.942042 24.8329091,36.9285285 24.8329091,36.9285285 L24.8329091,36.9285285 Z M15.4217955,37.5792793 C15.4217955,37.5792793 25.7679375,36.9066066 28.4158295,49.7429429 L28.4158295,49.7429429 C17.1695909,48.481982 15.4217955,37.5792793 15.4217955,37.5792793 L15.4217955,37.5792793 Z M5.18918182,39.4582583 C5.18918182,39.4582583 13.8688352,37.1825826 17.6083466,47.6135135 L17.6083466,47.6135135 C17.2015114,47.6465465 16.8070227,47.6624625 16.4242784,47.6624625 L16.4242784,47.6624625 C7.71601705,47.6621622 5.18918182,39.4582583 5.18918182,39.4582583 L5.18918182,39.4582583 Z M79.0633523,40.3267267 C79.0567273,40.3075075 79.0498011,40.2873874 79.0437784,40.2684685 L79.0437784,40.2684685 L79.1040057,40.284985 C79.0904545,40.2987988 79.0769034,40.3126126 79.0633523,40.3267267 L79.0633523,40.3267267 C85.5245341,59.7474474 74.016608,70.3177177 74.016608,70.3177177 L74.016608,70.3177177 C74.016608,70.3177177 65.9304943,53.7459459 79.0633523,40.3267267 L79.0633523,40.3267267 Z M68.195642,40.3513514 C68.2116023,40.3534535 68.2278636,40.3558559 68.2438239,40.3582583 L68.2438239,40.3582583 L68.2061818,40.4087087 C68.2028693,40.3891892 68.1995568,40.3708709 68.195642,40.3513514 L68.195642,40.3513514 Z M58.490017,45.4528529 C58.5044716,45.4546547 58.5198295,45.4561562 58.533983,45.457958 L58.533983,45.457958 L58.500858,45.5039039 C58.4972443,45.4861862 58.4939318,45.4702703 58.490017,45.4528529 L58.490017,45.4528529 Z M69.5501534,47.1369369 C69.5480455,47.118018 69.5459375,47.0978979 69.5441307,47.0786787 L69.5441307,47.0786787 L69.5953239,47.1108108 C69.580267,47.1198198 69.5655114,47.1282282 69.5501534,47.1369369 L69.5501534,47.1369369 C71.571983,66.666967 58.9697273,73.0762763 58.9697273,73.0762763 L58.9697273,73.0762763 C58.9697273,73.0762763 54.8974602,55.6864865 69.5501534,47.1369369 L69.5501534,47.1369369 Z M17.6363523,47.6111111 L17.6194886,47.6447447 C17.615875,47.6342342 17.6116591,47.6234234 17.6083466,47.6135135 L17.6083466,47.6135135 C17.6176818,47.6126126 17.627017,47.612012 17.6363523,47.6111111 L17.6363523,47.6111111 Z M49.245733,49.436036 C49.2583807,49.4372372 49.2704261,49.4387387 49.283375,49.4399399 L49.283375,49.4399399 L49.2550682,49.4816817 C49.2517557,49.4663664 49.2487443,49.4510511 49.245733,49.436036 L49.245733,49.436036 Z M28.4158295,49.7429429 C28.4269716,49.7444444 28.4387159,49.7456456 28.449858,49.7468468 L28.449858,49.7468468 L28.4239602,49.781982 C28.42125,49.7687688 28.4188409,49.7561562 28.4158295,49.7429429 L28.4158295,49.7429429 Z M13.1093693,52.9339339 C13.1093693,52.9339339 20.4089148,46.0033033 29.6426591,53.7309309 L29.6426591,53.7309309 C26.822517,56.1339339 24.1535455,56.960961 21.8155227,56.960961 L21.8155227,56.960961 C16.6561534,56.960961 13.1093693,52.9339339 13.1093693,52.9339339 L13.1093693,52.9339339 Z M39.1501364,50.3309309 C39.162483,50.3321321 39.1748295,50.3336336 39.1871761,50.3348348 L39.1871761,50.3348348 L39.1594716,50.3753754 C39.1564602,50.360961 39.1531477,50.3453453 39.1501364,50.3309309 L39.1501364,50.3309309 Z M58.3361364,52.5756757 C58.3364375,52.5585586 58.3364375,52.5402402 58.3367386,52.5231231 L58.3367386,52.5231231 L58.3788977,52.5588589 C58.3644432,52.5645646 58.3505909,52.56997 58.3361364,52.5756757 L58.3361364,52.5756757 C58.162983,70.0852853 46.4057159,73.9564565 46.4057159,73.9564565 L46.4057159,73.9564565 C46.4057159,73.9564565 44.5567386,58.0447447 58.3361364,52.5756757 L58.3361364,52.5756757 Z M29.6691591,53.7081081 L29.6691591,53.7531532 C29.660125,53.7456456 29.651392,53.7384384 29.6426591,53.7309309 L29.6426591,53.7309309 C29.6510909,53.7231231 29.660125,53.7156156 29.6691591,53.7081081 L29.6691591,53.7081081 Z M23.6702216,63.2063063 C23.6702216,63.2063063 27.5612045,53.1147147 38.7357727,55.0804805 L38.7357727,55.0804805 C35.541017,62.3435435 30.5156534,63.7243243 27.1585852,63.7243243 L27.1585852,63.7243243 C25.1009205,63.7243243 23.6702216,63.2063063 23.6702216,63.2063063 L23.6702216,63.2063063 Z M38.7514318,55.0447447 L38.7679943,55.0861862 C38.7571534,55.0843844 38.7466136,55.0822823 38.7357727,55.0804805 L38.7357727,55.0804805 C38.7411932,55.0684685 38.7463125,55.0567568 38.7514318,55.0447447 L38.7514318,55.0447447 Z M47.9174205,55.6618619 C47.9201307,55.6471471 47.9228409,55.6318318 47.9255511,55.6171171 L47.9255511,55.6171171 L47.9571705,55.6558559 C47.9439205,55.657958 47.9306705,55.6600601 47.9174205,55.6618619 L47.9174205,55.6618619 C45.2439318,70.7162162 34.5532898,71.6636637 34.5532898,71.6636637 L34.5532898,71.6636637 C34.5532898,71.6636637 35.2540341,57.5744745 47.9174205,55.6618619 L47.9174205,55.6618619 Z" id="path-1"></path>
    </defs>
    <g id="Pods-Alternative-Cache" stroke="none" stroke-width="1" fill="none" fill-rule="evenodd">
        <g id="banner">
            <polygon id="Fill-172" fill="#95BF3B" points="1185.977 925 -414 925 -414 -675 1185.977 -675"></polygon>
            <g id="Pods-Frond" opacity="0.1" style="mix-blend-mode: screen;" transform="translate(-14.000000, -378.000000)" fill="#BFBF9B">
                <path d="M1019.34984,315.705141 C1019.34984,315.705141 716.636167,354.192649 541.752346,461.607286 C464.375451,509.135067 377.552645,603.769679 201.02566,603.769679 C197.701779,603.769679 198.838496,607.706687 198.838496,607.706687 C199.535749,608.922767 202.161361,609.25119 202.882973,609.265425 C283.29551,610.918725 390.891809,601.088406 524.711749,494.071334 C641.905182,400.343698 1011.54709,345.170678 1011.54709,345.170678 L1019.34984,315.705141 Z" id="Fill-1"></path>
                <path d="M535.721051,507.386291 C447.26117,589.125982 513.591618,677.379224 513.591618,677.379224 C513.591618,677.379224 591.463797,612.295559 535.281588,507.327317" id="Fill-4"></path>
                <path d="M626.281319,459.526223 C517.754334,551.480578 600.9772,657.592708 600.9772,657.592708 C600.9772,657.592708 696.597379,584.6879 625.7292,459.431662" id="Fill-6"></path>
                <path d="M720.739713,421.176693 C608.681803,520.298397 693.415893,632.484825 693.415893,632.484825 C693.415893,632.484825 792.092012,553.796519 720.175415,421.080098" id="Fill-8"></path>
                <path d="M821.704997,386.581455 C702.429952,505.710521 795.379863,630.759334 795.379863,630.759334 C795.379863,630.759334 900.536281,535.742409 821.100101,386.497061" id="Fill-10"></path>
                <path d="M463.910107,546.143452 C381.124675,611.369467 431.982585,692.043562 431.982585,692.043562 C431.982585,692.043562 504.340675,640.58589 463.52951,546.063125" id="Fill-12"></path>
                <path d="M404.233713,579.303797 C311.926251,620.789817 337.538907,705.442608 337.538907,705.442608 C337.538907,705.442608 416.7924,674.237345 403.908937,579.146195" id="Fill-14"></path>
                <path d="M333.831182,605.770619 C247.053033,632.260013 258.687122,709.719021 258.687122,709.719021 C258.687122,709.719021 332.623421,690.872831 333.568316,605.598781" id="Fill-16"></path>
                <path d="M268.424012,620.814931 C188.704669,629.993488 184.293803,698.582026 184.293803,698.582026 C184.293803,698.582026 251.529564,693.965803 268.222042,620.626825" id="Fill-19"></path>
                <path d="M153.644275,611.352487 C96.8114985,648.985892 49.7118567,607.5924 49.7118567,607.5924 C49.7118567,607.5924 95.6088119,573.856348 153.644275,611.57313" id="Fill-21"></path>
                <path d="M210.648573,617.84794 C178.333349,674.964044 115.990543,657.494588 115.990543,657.494588 C115.990543,657.494588 140.459379,608.375531 210.751081,618.048248" id="Fill-23"></path>
                <path d="M655.041158,399.696511 C637.903128,248.114582 485.63083,231.713771 485.63083,231.713771 C485.63083,231.713771 493.135188,359.185593 655.479606,399.352837" id="Fill-32"></path>
                <path d="M571.9412,436.93591 C556.668603,301.849354 420.969021,287.235041 420.969021,287.235041 C420.969021,287.235041 427.659409,400.829723 572.327887,436.629857" id="Fill-34"></path>
                <path d="M517.063881,468.873363 C489.859821,356.329025 373.221552,360.107414 373.221552,360.107414 C373.221552,360.107414 390.886328,455.474114 517.364299,468.566293" id="Fill-36"></path>
                <path d="M459.949463,508.06449 C428.785164,406.400813 322.320507,415.344492 322.320507,415.344492 C322.320507,415.344492 343.786179,501.750228 460.203194,507.768604" id="Fill-38"></path>
                <path d="M395.510633,546.747628 C374.19923,455.539596 279.80914,457.97989 279.80914,457.97989 C279.80914,457.97989 293.502513,535.230456 395.74711,546.502582" id="Fill-40"></path>
                <path d="M334.598263,571.497092 C313.01283,489.82756 228.073725,494.11231 228.073725,494.11231 C228.073725,494.11231 242.42071,563.387181 334.808352,571.274415" id="Fill-42"></path>
                <path d="M276.567164,590.822088 C257.601254,519.061167 182.964657,522.825321 182.964657,522.825321 C182.964657,522.825321 195.571045,583.695412 276.746806,590.619747" id="Fill-44"></path>
                <path d="M213.205678,595.162761 C194.988782,526.230549 123.290394,529.841167 123.290394,529.841167 C123.290394,529.841167 135.408603,588.315702 213.380245,594.968554" id="Fill-46"></path>
                <path d="M145.827116,592.281282 C129.293982,529.721288 64.2220418,533.000433 64.2220418,533.000433 C64.2220418,533.000433 75.2187582,586.069716 145.987475,592.109445" id="Fill-48"></path>
                <path d="M78.0154866,581.896915 C54.5818746,531.055417 0.000202985075,542.130286 0.000202985075,542.130286 C0.000202985075,542.130286 17.3138149,585.646834 78.1200239,581.735245" id="Fill-50"></path>
            </g>
            <g id="Group-3" transform="translate(147.000000, 76.000000)">
                <g id="Group-2">
                    <g id="Group">
                        <g id="pods-logo-white">
                            <g id="pods-circle" stroke-width="1">
                                <g id="Group-3" transform="translate(5.721591, 5.705706)">
                                    <mask id="mask-2" fill="white">
                                        <use xlink:href="#path-1"></use>
                                    </mask>
                                    <g id="Clip-2"></g>
                                    <polygon id="Fill-1" fill="#FFFFFF" mask="url(#mask-2)" points="-2.87765909 -2.96726727 91.0088295 -2.96726727 91.0088295 91.4636637 -2.87765909 91.4636637"></polygon>
                                </g>
                                <path d="M50.0883426,3.21531532 C24.2415074,3.21531532 3.21435966,24.1822823 3.21435966,49.9540541 C3.21435966,75.7261261 24.2415074,96.6930931 50.0883426,96.6930931 C75.9351778,96.6930931 96.9629278,75.7261261 96.9629278,49.9540541 C96.9629278,24.1822823 75.9351778,3.21531532 50.0883426,3.21531532 M50.0883426,99.7723724 C22.5391835,99.7723724 0.126507386,77.4237237 0.126507386,49.9540541 C0.126507386,22.4840841 22.5391835,0.135735736 50.0883426,0.135735736 C77.6375017,0.135735736 100.05078,22.4840841 100.05078,49.9540541 C100.05078,77.4237237 77.6375017,99.7723724 50.0883426,99.7723724" id="Fill-4" fill="#FFFFFF"></path>
                            </g>
                            <path d="M128.523934,64.2621037 L125.380989,89.910456 L108.409091,89.910456 L117.733159,13.8011905 L142.981477,13.8011905 C147.521308,13.8011905 151.406297,14.3496732 154.636561,15.4466551 C157.866826,16.5436369 160.520841,18.0584939 162.598686,19.9912715 C164.676532,21.924049 166.204337,24.2050406 167.182147,26.8343146 C168.159956,29.4635886 168.648854,32.2930628 168.648854,35.3228222 C168.648854,39.4669759 168.011541,43.3063548 166.736896,46.8410741 C165.462251,50.3757935 163.515392,53.4316257 160.896258,56.0086624 C158.277125,58.5856992 154.959606,60.6055085 150.943602,62.0681509 C146.927598,63.5307934 142.178307,64.2621037 136.695588,64.2621037 L128.523934,64.2621037 Z M133.23835,26.4947743 L130.147788,51.464046 L138.371825,51.464046 C140.81635,51.464046 142.867973,51.1070969 144.526758,50.3931881 C146.185542,49.6792793 147.53001,48.6693746 148.560203,47.3634438 C149.590395,46.0575131 150.332472,44.4991257 150.786455,42.688235 C151.240438,40.8773443 151.467426,38.8923593 151.467426,36.7332204 C151.467426,35.2357531 151.266629,33.8601933 150.865028,32.6064998 C150.463428,31.3528062 149.843576,30.273253 149.005453,29.3678076 C148.16733,28.4623623 147.110962,27.7571702 145.836318,27.2522103 C144.561673,26.7472504 143.051329,26.4947743 141.30524,26.4947743 L133.23835,26.4947743 Z M188.787101,78.7317444 C190.603034,78.7317444 192.226872,78.1832617 193.658665,77.0862799 C195.090458,75.989298 196.303971,74.4918532 197.299242,72.5939004 C198.294513,70.6959477 199.06278,68.4846047 199.604068,65.9598052 C200.145355,63.4350057 200.415995,60.7448286 200.415995,57.8891933 C200.415995,53.9539886 199.883446,51.1419265 198.818332,49.4529227 C197.753217,47.7639188 196.015885,46.9194296 193.606282,46.9194296 C191.79035,46.9194296 190.166512,47.4679123 188.734719,48.5648942 C187.302926,49.661876 186.089413,51.1506148 185.094142,53.0311551 C184.098871,54.9116954 183.330604,57.1230384 182.789316,59.6652503 C182.248029,62.2074622 181.977389,64.9063454 181.977389,67.7619807 C181.977389,71.6275358 182.509938,74.4221858 183.575052,76.1460144 C184.640167,77.869843 186.377499,78.7317444 188.787101,78.7317444 L188.787101,78.7317444 Z M187.320394,90.7462476 C184.2822,90.7462476 181.444848,90.2412952 178.808254,89.2313754 C176.17166,88.2214556 173.884318,86.750129 171.946159,84.8173515 C170.008,82.8845739 168.488926,80.4991094 167.38889,77.6608865 C166.288854,74.8226636 165.738844,71.5578856 165.738844,67.8664546 C165.738844,63.0606293 166.533303,58.6466495 168.122244,54.6243827 C169.711184,50.6021159 171.850111,47.1283921 174.539088,44.2031072 C177.228065,41.2778222 180.344787,38.9968306 183.889347,37.3600641 C187.433907,35.7232975 191.161751,34.9049265 195.07299,34.9049265 C198.111184,34.9049265 200.939806,35.4098788 203.558939,36.4197986 C206.178072,37.4297184 208.456684,38.901045 210.394843,40.8338226 C212.333001,42.7666001 213.860806,45.1520646 214.978303,47.9902875 C216.0958,50.8285104 216.65454,54.0932884 216.65454,57.7847194 C216.65454,62.520895 215.860081,66.9000506 214.27114,70.9223174 C212.6822,74.9445842 210.543273,78.4270141 207.854296,81.3697114 C205.165319,84.3124088 202.048597,86.6108125 198.504037,88.2649915 C194.959477,89.9191705 191.231633,90.7462476 187.320394,90.7462476 L187.320394,90.7462476 Z M258.350932,89.910456 C257.338201,89.910456 256.49136,89.7798649 255.810386,89.5186788 C255.129411,89.2574926 254.588132,88.9005435 254.186531,88.4478209 C253.784931,87.9950982 253.505561,87.4553216 253.348413,86.8284748 C253.191265,86.201628 253.112692,85.5225542 253.112692,84.791233 L253.112692,80.2466166 C250.633246,83.5201497 247.891927,86.0884417 244.888655,87.9515697 C241.885382,89.8146976 238.690087,90.7462476 235.302675,90.7462476 C233.067681,90.7462476 231.024788,90.3544742 229.173934,89.5709157 C227.32308,88.7873573 225.725432,87.5598007 224.380944,85.8882093 C223.036456,84.2166179 221.988818,82.0836297 221.238,79.4891805 C220.487182,76.8947313 220.111778,73.7866627 220.111778,70.1648813 C220.111778,67.0306474 220.44353,63.9748152 221.107044,60.9972931 C221.770558,58.0197709 222.695971,55.2251209 223.883311,52.6132593 C225.070652,50.0013978 226.484962,47.6072273 228.126286,45.4306759 C229.767609,43.2541246 231.574784,41.3910247 233.547865,39.8413201 C235.520945,38.2916156 237.60749,37.0814712 239.807562,36.2108507 C242.007634,35.3402302 244.277515,34.9049265 246.617274,34.9049265 C248.852268,34.9049265 250.86897,35.2792877 252.667441,36.0280213 C254.465913,36.776755 256.0461,37.7605414 257.408049,38.9794101 L260.865287,11.7117117 L276.789538,11.7117117 L267.046411,89.910456 L258.350932,89.910456 Z M241.798093,78.4183226 C242.91559,78.4183226 244.076721,78.000431 245.281523,77.1646353 C246.486324,76.3288396 247.656186,75.1796378 248.791144,73.7169953 C249.926101,72.2543528 250.982469,70.5392561 251.960279,68.5716537 C252.938089,66.6040514 253.776199,64.4884752 254.474634,62.2248619 L256.150871,49.0611454 C255.13814,48.2601745 254.011929,47.6855736 252.772206,47.3373254 C251.532483,46.9890772 250.353891,46.8149557 249.236394,46.8149557 C247.350618,46.8149557 245.613286,47.441793 244.024345,48.6954866 C242.435404,49.9491801 241.064745,51.5946282 239.912326,53.6318803 C238.759908,55.6691323 237.860686,57.9936542 237.214633,60.6055158 C236.56858,63.2173773 236.245558,65.8814362 236.245558,68.5977722 C236.245558,72.0454295 236.751916,74.5440729 237.764648,76.0937774 C238.777379,77.643482 240.121848,78.4183226 241.798093,78.4183226 L241.798093,78.4183226 Z M313.809408,47.1283775 C313.320503,47.7552243 312.866527,48.2079401 312.447465,48.4865387 C312.028404,48.7651373 311.469664,48.9044345 310.771228,48.9044345 C310.072793,48.9044345 309.383098,48.7477251 308.702124,48.4343017 C308.021149,48.1208783 307.287803,47.7639293 306.502063,47.3634438 C305.716323,46.9629584 304.825831,46.6060093 303.83056,46.292586 C302.835289,45.9791626 301.691618,45.8224532 300.399513,45.8224532 C297.98991,45.8224532 296.270038,46.2838752 295.239846,47.2067329 C294.209654,48.1295907 293.694565,49.3223229 293.694565,50.7849654 C293.694565,51.7252356 293.982666,52.5261944 294.558875,53.187866 C295.135084,53.8495376 295.894621,54.4415507 296.837509,54.963923 C297.780397,55.4862953 298.854226,55.9651294 300.059027,56.4004397 C301.263828,56.8357499 302.494803,57.3232901 303.751986,57.8630748 C305.00917,58.4028596 306.240145,59.0209909 307.444946,59.7174873 C308.649747,60.4139837 309.723576,61.267179 310.666464,62.2770988 C311.609352,63.2870186 312.368889,64.4884569 312.945098,65.8814498 C313.521307,67.2744426 313.809408,68.9285968 313.809408,70.8439619 C313.809408,73.560298 313.268128,76.12859 312.185553,78.548915 C311.102978,80.9692401 309.548983,83.0761101 307.523519,84.8695884 C305.498056,86.6630667 303.044838,88.0908629 300.163792,89.15302 C297.282745,90.215177 294.043799,90.7462476 290.446856,90.7462476 C288.735689,90.7462476 287.042008,90.5721261 285.365763,90.2238779 C283.689518,89.8756297 282.109331,89.4055016 280.625156,88.8134797 C279.14098,88.2214577 277.787782,87.5162657 276.56552,86.6978824 C275.343257,85.8794991 274.348002,85.0001855 273.579723,84.0599154 L277.560785,78.1049008 C278.04969,77.4084044 278.61716,76.8599217 279.263213,76.4594362 C279.909266,76.0589508 280.703725,75.8587111 281.646613,75.8587111 C282.519657,75.8587111 283.270464,76.0676569 283.899056,76.4855547 C284.527648,76.9034526 285.208612,77.3561684 285.94197,77.8437159 C286.675327,78.3312634 287.548358,78.7839793 288.56109,79.2018772 C289.573821,79.619775 290.900829,79.8287208 292.542152,79.8287208 C294.84699,79.8287208 296.558131,79.3150624 297.675628,78.2877302 C298.793125,77.260398 299.351865,76.0502536 299.351865,74.6572608 C299.351865,73.5776913 299.063764,72.6896717 298.487555,71.9931753 C297.911346,71.2966789 297.151808,70.6959597 296.208921,70.1909998 C295.266033,69.6860399 294.200934,69.233324 293.013594,68.8328386 C291.826254,68.4323531 290.60401,67.9883433 289.346826,67.5007958 C288.089642,67.0132483 286.867398,66.4473535 285.680058,65.8030943 C284.492717,65.1588351 283.427619,64.3491702 282.484731,63.3740752 C281.541843,62.3989802 280.782306,61.1975419 280.206096,59.7697243 C279.629887,58.3419066 279.341787,56.6181038 279.341787,54.5982642 C279.341787,52.0908771 279.804493,49.6531762 280.729921,47.2850884 C281.655348,44.9170006 283.034737,42.8188366 284.86813,40.9905335 C286.701524,39.1622304 288.980135,37.6909038 291.704034,36.5765095 C294.427932,35.4621152 297.605766,34.9049265 301.237631,34.9049265 C304.869496,34.9049265 308.108442,35.5317638 310.954567,36.7854574 C313.800692,38.0391509 316.149146,39.5714201 318,41.3823108 L313.809408,47.1283775 Z" id="Pods" fill="#FFFFFF"></path>
                        </g>
                    </g>
                </g>
                <g id="speed-control-of-semicircular-shape-icon" transform="translate(341.571031, 14.666667)" fill-rule="nonzero" fill="#FFFFFF">
                    <path d="M113.904415,17.0691315 C107.752043,11.7594106 100.804465,7.62033683 93.229095,4.76340039 C85.4026074,1.79497375 77.1436401,0.289856023 68.7034499,0.289856023 C60.2631201,0.289856023 52.0041528,1.79497375 44.1776652,4.76340039 C36.6162459,7.6342731 29.6547177,11.7733469 23.5023451,17.0691315 C11.0859922,27.7861272 2.85492686,42.5446427 0.343754376,58.6549769 C-0.353793538,63.1006488 0.929694623,67.6020657 3.8454449,71.0164531 C6.76119518,74.4308406 11.0162374,76.3819191 15.4944951,76.3819191 L54.7245897,76.3819191 C57.291566,81.4965321 62.5929302,85.0224098 68.7034499,85.0224098 C74.8138301,85.0224098 80.1151942,81.4965321 82.6823101,76.3819191 L121.912405,76.3819191 C126.404474,76.3819191 130.645705,74.4308406 133.561455,71.0164531 C136.491156,67.6020657 137.760693,63.1006488 137.063145,58.6549769 C134.551833,42.5447821 126.320768,27.7861272 113.904415,17.0691315 Z M68.7033104,75.2670171 C66.4014023,75.2670171 64.4064152,73.9291347 63.4437991,72.0059287 C63.0531723,71.2254973 62.8439079,70.3476513 62.8439079,69.4137815 C62.8439079,66.1805656 65.4666881,63.5605458 68.7033104,63.5605458 C70.6145917,63.5605458 72.3166086,64.48034 73.3768814,65.8879038 C74.1162822,66.8634431 74.5627128,68.0898353 74.5627128,69.4137815 C74.5627128,72.6471367 71.9399327,75.2670171 68.7033104,75.2670171 Z M122.958587,61.9578742 C122.763274,62.1808546 122.428311,62.4456438 121.912265,62.4456438 L82.6821706,62.4456438 C80.1151942,57.3310308 74.8138301,53.8051531 68.7033104,53.8051531 C68.2568797,53.8051531 67.810449,53.8190894 67.3640184,53.8608982 L49.450988,30.224836 C46.3817771,26.1833162 40.1177969,30.0436644 42.3499502,34.6008264 L55.4081867,61.2191122 C55.1570694,61.6093279 54.9338541,62.0274162 54.7245897,62.4455045 L15.4944951,62.4455045 C14.9643586,62.4455045 14.6295356,62.1807152 14.4481732,61.9577348 C14.2528598,61.7347544 14.0435954,61.3445387 14.1273011,60.8149603 C16.1362391,47.9657144 22.7071405,36.1756255 32.6262718,27.6187525 C37.5370091,23.3821248 43.0894905,20.0792276 49.1302554,17.7936784 C53.636415,16.0795166 58.3378879,14.9924871 63.136878,14.5047175 L63.136878,25.820973 C63.136878,28.9008898 65.6340996,31.3954831 68.7172613,31.3954831 C71.8004231,31.3954831 74.2976446,28.9008898 74.2976446,25.820973 L74.2976446,14.5047175 C79.0967743,14.9785508 83.7842963,16.0795166 88.3044067,17.7936784 C94.3451717,20.0792276 99.8976531,23.3821248 104.80839,27.6187525 C114.727661,36.1756255 121.298423,47.9657144 123.307501,60.8149603 C123.363165,61.3587537 123.1539,61.7350331 122.958587,61.9578742 Z" id="Shape" transform="translate(68.704002, 42.656133) scale(-1, 1) translate(-68.704002, -42.656133) "></path>
                </g>
            </g>
        </g>
    </g>
</svg>